<svg width="114" height="102" viewBox="0 0 114 102" fill="none" xmlns="http://www.w3.org/2000/svg">
<path d="M40.6719 30.6816C39.6874 29.4089 39.1883 27.8272 39.2639 26.2199C39.5039 21.1178 45.0901 18.1073 49.4835 20.7124L49.7281 20.8574C50.964 21.5902 51.9421 22.6884 52.5276 24.0004L56.5889 33.1013C57.765 35.7367 56.7599 38.8346 54.2607 40.2776C51.8189 41.6875 48.7108 41.0755 46.9858 38.8451L40.6719 30.6816Z" fill="#0E7039"/>
<path d="M55.3275 29.0832C55.5332 27.8908 56.1567 26.8106 57.0864 26.036C60.0375 23.5773 64.5446 25.1457 65.3318 28.9053L65.3757 29.1146C65.5971 30.1721 65.485 31.2723 65.0549 32.2635L62.0714 39.1387C61.2074 41.1296 58.979 42.146 56.9093 41.4932C54.8871 40.8553 53.6476 38.8209 54.0081 36.7314L55.3275 29.0832Z" fill="url(#paint0_linear_346_2716)"/>
<path d="M19.3944 43.8639C30.3189 40.3012 43.5762 38.3686 56.4102 36.5086C59.3392 36.0846 62.2133 35.4494 65.1561 35.1624C69.6137 34.7273 74.0378 33.9712 78.4156 33.0267C82.5568 32.1325 86.77 30.4893 90.9625 29.9798C95.1829 29.4659 99.1407 32.0475 101.621 35.2032C86.1193 38.8178 69.9497 41.6832 54.3251 44.4438C40.25 46.9438 25.6963 49.506 11.6388 52.6458C12.558 48.0435 14.2102 45.5666 19.3944 43.8639ZM103.23 80.8176C93.2325 82.6747 83.1003 84.8247 73.3052 86.8985C61.0429 89.505 48.3714 92.2018 35.8653 94.3223C35.3082 94.4199 34.6607 94.5457 33.9514 94.6835C31.1183 95.2553 26.8073 96.0716 24.9997 95.388C24.7128 95.2838 24.4444 95.1652 24.1863 95.0447C22.2937 94.143 20.9237 92.6918 20.0065 90.6619C19.0794 88.5805 18.1016 82.2848 17.2469 76.7332C16.309 70.643 15.6905 66.9657 15.0486 64.9249L102.424 47.6815C102.602 50.7404 103.567 54.4998 104.568 58.4442C106.848 67.3244 109.422 77.3851 103.23 80.8176ZM104.113 43.4172C103.972 43.9565 103.724 44.3248 103.369 44.5323C103.322 44.5629 103.274 44.5934 103.227 44.624L103.208 44.6382L13.3684 62.3712C13.1514 62.2427 12.9198 62.149 12.7108 62.0616C12.1207 61.8242 11.7561 61.6497 11.5283 61.246C11.0239 60.3519 10.9594 57.8789 11.1896 55.6048C11.2122 55.611 11.243 55.6051 11.2636 55.6011L11.315 55.5911C25.6015 52.3672 40.4535 49.7482 54.8102 47.2148C63.5775 45.6713 72.5196 44.0939 81.4214 42.3643C88.5861 40.9723 95.7307 39.4774 102.749 37.8258C102.891 37.7875 103.031 37.739 103.142 37.6534C103.895 39.3312 104.534 41.7991 104.113 43.4172Z" fill="#FBBE4E"/>
<g opacity="0.6">
<path d="M71.9423 72.0462C71.2901 71.9293 70.6754 72.3584 70.5589 73.0053C69.5488 78.5904 65.1819 80.9134 61.7275 81.2125L61.6801 81.2166C58.2813 81.4932 53.6457 79.9374 51.7632 74.6409C51.5432 74.0205 50.8621 73.7036 50.243 73.9173C49.6226 74.1373 49.2995 74.8188 49.5193 75.4375C51.4416 80.8447 56.2903 84.0448 61.8742 83.5904L61.9418 83.5846C67.5749 83.0968 71.8727 79.117 72.9023 73.4294C73.0195 72.7816 72.5891 72.1626 71.9423 72.0462Z" fill="#772910"/>
<path d="M57.0128 64.9719C56.9418 64.8259 56.8594 64.6614 56.7293 64.4967C56.6689 64.4223 56.6018 64.3521 56.5071 64.2595C54.8057 62.3116 52.788 61.777 50.9698 62.7897C49.5128 63.6031 49.2343 64.4515 48.9647 65.2708C48.9144 65.4246 48.8599 65.5921 48.7892 65.7768C48.706 65.8681 48.6066 65.997 48.5327 66.1652L48.1803 66.9563C47.914 67.5578 48.1854 68.2613 48.786 68.5277C48.9763 68.612 49.1771 68.6424 49.3702 68.6257C49.7889 68.5894 50.1744 68.3323 50.3573 67.922L50.6327 67.3029C50.7235 67.2066 50.8375 67.0632 50.9163 66.8698C51.0495 66.5496 51.1428 66.2691 51.2269 66.0142C51.4404 65.3642 51.4843 65.2286 52.1297 64.8685C52.4209 64.7071 53.306 64.2139 54.709 65.8214C54.7483 65.8667 54.79 65.909 54.8481 65.9668L54.8759 66.0228C55.0271 66.3289 55.2785 66.8414 55.8272 67.1423C56.4003 67.458 57.1278 67.2499 57.444 66.6733C57.7391 66.1383 57.5782 65.4748 57.0919 65.1295C57.0608 65.0774 57.0366 65.022 57.0128 64.9719Z" fill="#772910"/>
<path d="M68.2244 61.1683C66.4552 60.8173 64.9458 61.5769 63.8026 62.7045C62.9917 63.6556 61.9957 65.6663 63.4566 66.4101C64.8925 67.141 64.909 65.4318 65.3374 64.5261C65.9849 63.8634 66.8647 63.3193 67.6859 63.4879C68.1672 63.5621 68.704 64.2665 68.9926 64.7703C69.085 64.9587 69.4555 65.4069 69.566 65.56C70.4153 66.8998 72.4169 65.6457 71.5855 64.2973C70.6108 63.01 70.0315 61.6097 68.2252 61.1673L68.2244 61.1683Z" fill="#772910"/>
</g>
<defs>
<linearGradient id="paint0_linear_346_2716" x1="63.5955" y1="20.6129" x2="56.3565" y2="41.4158" gradientUnits="userSpaceOnUse">
<stop stop-color="#07B250"/>
<stop offset="1" stop-color="#FBBE4E"/>
</linearGradient>
</defs>
</svg>
